<?xml version="1.0" encoding="UTF-8" standalone="no"?>
<!DOCTYPE svg PUBLIC "-//W3C//DTD SVG 1.1//EN"
 "http://www.w3.org/Graphics/SVG/1.1/DTD/svg11.dtd">
<!-- Generated by graphviz version 2.50.0 (0)
 -->
<!-- Pages: 1 -->
<svg width="2012pt" height="980pt"
 viewBox="0.00 0.00 2012.00 980.00" xmlns="http://www.w3.org/2000/svg" xmlns:xlink="http://www.w3.org/1999/xlink">
<g id="graph0" class="graph" transform="scale(1 1) rotate(0) translate(4 976)">
<polygon fill="white" stroke="transparent" points="-4,4 -4,-976 2008,-976 2008,4 -4,4"/>
<!-- &#45;2909998223481455584 -->
<g id="node1" class="node">
<title>&#45;2909998223481455584</title>
<polygon fill="none" stroke="black" points="850,-972 368,-972 368,-936 850,-936 850,-972"/>
<text text-anchor="middle" x="609" y="-949" font-family="Helvetica,sans-Serif" font-size="20.00">Projection(Loc, [&#39;pickup_latitude&#39;, &#39;pickup_longitude&#39;])</text>
</g>
<!-- &#45;2218734501563047085 -->
<g id="node2" class="node">
<title>&#45;2218734501563047085</title>
<polygon fill="none" stroke="black" points="679,-900 539,-900 539,-864 679,-864 679,-900"/>
<text text-anchor="middle" x="609" y="-877" font-family="Helvetica,sans-Serif" font-size="20.00">Loc(Loc, And)</text>
</g>
<!-- &#45;2218734501563047085&#45;&gt;&#45;2909998223481455584 -->
<g id="edge1" class="edge">
<title>&#45;2218734501563047085&#45;&gt;&#45;2909998223481455584</title>
<path fill="none" stroke="black" d="M609,-900.3C609,-908.02 609,-917.29 609,-925.89"/>
<polygon fill="black" stroke="black" points="605.5,-925.9 609,-935.9 612.5,-925.9 605.5,-925.9"/>
</g>
<!-- 3687746503436436684 -->
<g id="node3" class="node">
<title>3687746503436436684</title>
<polygon fill="none" stroke="black" points="808.5,-828 575.5,-828 575.5,-792 808.5,-792 808.5,-828"/>
<text text-anchor="middle" x="692" y="-805" font-family="Helvetica,sans-Serif" font-size="20.00">And(Between, Between)</text>
</g>
<!-- 3687746503436436684&#45;&gt;&#45;2218734501563047085 -->
<g id="edge2" class="edge">
<title>3687746503436436684&#45;&gt;&#45;2218734501563047085</title>
<path fill="none" stroke="black" d="M671.48,-828.3C661.13,-837.03 648.41,-847.76 637.16,-857.25"/>
<polygon fill="black" stroke="black" points="634.67,-854.77 629.28,-863.9 639.18,-860.12 634.67,-854.77"/>
</g>
<!-- &#45;8603464503766918022 -->
<g id="node4" class="node">
<title>&#45;8603464503766918022</title>
<polygon fill="none" stroke="black" points="790.5,-756 593.5,-756 593.5,-720 790.5,-720 790.5,-756"/>
<text text-anchor="middle" x="692" y="-733" font-family="Helvetica,sans-Serif" font-size="20.00">Between(Projection)</text>
</g>
<!-- &#45;8603464503766918022&#45;&gt;3687746503436436684 -->
<g id="edge4" class="edge">
<title>&#45;8603464503766918022&#45;&gt;3687746503436436684</title>
<path fill="none" stroke="black" d="M692,-756.3C692,-764.02 692,-773.29 692,-781.89"/>
<polygon fill="black" stroke="black" points="688.5,-781.9 692,-791.9 695.5,-781.9 688.5,-781.9"/>
</g>
<!-- &#45;8946758295159420832 -->
<g id="node5" class="node">
<title>&#45;8946758295159420832</title>
<polygon fill="none" stroke="black" points="829.5,-684 554.5,-684 554.5,-648 829.5,-648 829.5,-684"/>
<text text-anchor="middle" x="692" y="-661" font-family="Helvetica,sans-Serif" font-size="20.00">Projection(Loc, trip_distance)</text>
</g>
<!-- &#45;8946758295159420832&#45;&gt;&#45;8603464503766918022 -->
<g id="edge6" class="edge">
<title>&#45;8946758295159420832&#45;&gt;&#45;8603464503766918022</title>
<path fill="none" stroke="black" d="M692,-684.3C692,-692.02 692,-701.29 692,-709.89"/>
<polygon fill="black" stroke="black" points="688.5,-709.9 692,-719.9 695.5,-709.9 688.5,-709.9"/>
</g>
<!-- &#45;7453283040889391356 -->
<g id="node6" class="node">
<title>&#45;7453283040889391356</title>
<polygon fill="none" stroke="black" points="790.5,-612 593.5,-612 593.5,-576 790.5,-576 790.5,-612"/>
<text text-anchor="middle" x="692" y="-589" font-family="Helvetica,sans-Serif" font-size="20.00">Loc(Projection, And)</text>
</g>
<!-- &#45;7453283040889391356&#45;&gt;&#45;2218734501563047085 -->
<g id="edge3" class="edge">
<title>&#45;7453283040889391356&#45;&gt;&#45;2218734501563047085</title>
<path fill="none" stroke="black" d="M593.38,-611.89C574.39,-619.76 556.77,-631.24 545,-648 523.85,-678.11 510.79,-702.09 566,-828 570.47,-838.2 577.45,-848.05 584.5,-856.44"/>
<polygon fill="black" stroke="black" points="581.95,-858.83 591.2,-863.99 587.18,-854.19 581.95,-858.83"/>
</g>
<!-- &#45;7453283040889391356&#45;&gt;&#45;8946758295159420832 -->
<g id="edge7" class="edge">
<title>&#45;7453283040889391356&#45;&gt;&#45;8946758295159420832</title>
<path fill="none" stroke="black" d="M692,-612.3C692,-620.02 692,-629.29 692,-637.89"/>
<polygon fill="black" stroke="black" points="688.5,-637.9 692,-647.9 695.5,-637.9 688.5,-637.9"/>
</g>
<!-- &#45;3678778323545888236 -->
<g id="node27" class="node">
<title>&#45;3678778323545888236</title>
<polygon fill="none" stroke="black" points="1122.5,-684 847.5,-684 847.5,-648 1122.5,-648 1122.5,-684"/>
<text text-anchor="middle" x="985" y="-661" font-family="Helvetica,sans-Serif" font-size="20.00">Projection(Loc, fare_amount)</text>
</g>
<!-- &#45;7453283040889391356&#45;&gt;&#45;3678778323545888236 -->
<g id="edge32" class="edge">
<title>&#45;7453283040889391356&#45;&gt;&#45;3678778323545888236</title>
<path fill="none" stroke="black" d="M763.3,-612.03C805.74,-622.17 859.74,-635.07 903.81,-645.6"/>
<polygon fill="black" stroke="black" points="903.09,-649.03 913.63,-647.95 904.72,-642.22 903.09,-649.03"/>
</g>
<!-- 3132304843633407006 -->
<g id="node7" class="node">
<title>3132304843633407006</title>
<polygon fill="none" stroke="black" points="725.5,-540 534.5,-540 534.5,-504 725.5,-504 725.5,-540"/>
<text text-anchor="middle" x="630" y="-517" font-family="Helvetica,sans-Serif" font-size="20.00">And(And, Between)</text>
</g>
<!-- 3132304843633407006&#45;&gt;&#45;7453283040889391356 -->
<g id="edge8" class="edge">
<title>3132304843633407006&#45;&gt;&#45;7453283040889391356</title>
<path fill="none" stroke="black" d="M645.33,-540.3C652.76,-548.7 661.82,-558.93 669.98,-568.14"/>
<polygon fill="black" stroke="black" points="667.6,-570.73 676.85,-575.9 672.84,-566.09 667.6,-570.73"/>
</g>
<!-- &#45;1303245419746885319 -->
<g id="node8" class="node">
<title>&#45;1303245419746885319</title>
<polygon fill="none" stroke="black" points="479.5,-468 282.5,-468 282.5,-432 479.5,-432 479.5,-468"/>
<text text-anchor="middle" x="381" y="-445" font-family="Helvetica,sans-Serif" font-size="20.00">Between(Projection)</text>
</g>
<!-- &#45;1303245419746885319&#45;&gt;3132304843633407006 -->
<g id="edge10" class="edge">
<title>&#45;1303245419746885319&#45;&gt;3132304843633407006</title>
<path fill="none" stroke="black" d="M441.59,-468.03C477.14,-478.03 522.22,-490.7 559.38,-501.15"/>
<polygon fill="black" stroke="black" points="558.56,-504.55 569.13,-503.89 560.45,-497.81 558.56,-504.55"/>
</g>
<!-- 7191417255253276332 -->
<g id="node9" class="node">
<title>7191417255253276332</title>
<polygon fill="none" stroke="black" points="348,-252 0,-252 0,-216 348,-216 348,-252"/>
<text text-anchor="middle" x="174" y="-229" font-family="Helvetica,sans-Serif" font-size="20.00">Projection(Concat, dropoff_longitude)</text>
</g>
<!-- 7191417255253276332&#45;&gt;&#45;1303245419746885319 -->
<g id="edge12" class="edge">
<title>7191417255253276332&#45;&gt;&#45;1303245419746885319</title>
<path fill="none" stroke="black" d="M190.59,-252.15C227.15,-289.95 314.79,-380.55 357.2,-424.4"/>
<polygon fill="black" stroke="black" points="354.86,-427.01 364.33,-431.77 359.89,-422.15 354.86,-427.01"/>
</g>
<!-- &#45;7993932846227393508 -->
<g id="node10" class="node">
<title>&#45;7993932846227393508</title>
<polygon fill="none" stroke="black" points="1253.5,-180 522.5,-180 522.5,-144 1253.5,-144 1253.5,-180"/>
<text text-anchor="middle" x="888" y="-157" font-family="Helvetica,sans-Serif" font-size="20.00">Concat(ArrowStringConversion, ArrowStringConversion, ArrowStringConversion)</text>
</g>
<!-- &#45;7993932846227393508&#45;&gt;7191417255253276332 -->
<g id="edge13" class="edge">
<title>&#45;7993932846227393508&#45;&gt;7191417255253276332</title>
<path fill="none" stroke="black" d="M714.25,-180.03C606.27,-190.62 467.61,-204.21 357.8,-214.98"/>
<polygon fill="black" stroke="black" points="357.21,-211.52 347.6,-215.98 357.89,-218.49 357.21,-211.52"/>
</g>
<!-- &#45;1001399952797934048 -->
<g id="node19" class="node">
<title>&#45;1001399952797934048</title>
<polygon fill="none" stroke="black" points="697.5,-252 366.5,-252 366.5,-216 697.5,-216 697.5,-252"/>
<text text-anchor="middle" x="532" y="-229" font-family="Helvetica,sans-Serif" font-size="20.00">Projection(Concat, dropoff_latitude)</text>
</g>
<!-- &#45;7993932846227393508&#45;&gt;&#45;1001399952797934048 -->
<g id="edge23" class="edge">
<title>&#45;7993932846227393508&#45;&gt;&#45;1001399952797934048</title>
<path fill="none" stroke="black" d="M801.37,-180.03C749.15,-190.3 682.54,-203.4 628.63,-214"/>
<polygon fill="black" stroke="black" points="627.85,-210.59 618.71,-215.95 629.2,-217.45 627.85,-210.59"/>
</g>
<!-- 4822450927703894321 -->
<g id="node22" class="node">
<title>4822450927703894321</title>
<polygon fill="none" stroke="black" points="1060,-252 716,-252 716,-216 1060,-216 1060,-252"/>
<text text-anchor="middle" x="888" y="-229" font-family="Helvetica,sans-Serif" font-size="20.00">Projection(Concat, pickup_longitude)</text>
</g>
<!-- &#45;7993932846227393508&#45;&gt;4822450927703894321 -->
<g id="edge27" class="edge">
<title>&#45;7993932846227393508&#45;&gt;4822450927703894321</title>
<path fill="none" stroke="black" d="M888,-180.3C888,-188.02 888,-197.29 888,-205.89"/>
<polygon fill="black" stroke="black" points="884.5,-205.9 888,-215.9 891.5,-205.9 884.5,-205.9"/>
</g>
<!-- &#45;3181597850050546762 -->
<g id="node24" class="node">
<title>&#45;3181597850050546762</title>
<polygon fill="none" stroke="black" points="1404,-252 1078,-252 1078,-216 1404,-216 1404,-252"/>
<text text-anchor="middle" x="1241" y="-229" font-family="Helvetica,sans-Serif" font-size="20.00">Projection(Concat, pickup_latitude)</text>
</g>
<!-- &#45;7993932846227393508&#45;&gt;&#45;3181597850050546762 -->
<g id="edge29" class="edge">
<title>&#45;7993932846227393508&#45;&gt;&#45;3181597850050546762</title>
<path fill="none" stroke="black" d="M973.9,-180.03C1025.68,-190.3 1091.73,-203.4 1145.19,-214"/>
<polygon fill="black" stroke="black" points="1144.53,-217.44 1155.02,-215.95 1145.89,-210.57 1144.53,-217.44"/>
</g>
<!-- &#45;6773947669108894233 -->
<g id="node25" class="node">
<title>&#45;6773947669108894233</title>
<polygon fill="none" stroke="black" points="2004,-396 900,-396 900,-360 2004,-360 2004,-396"/>
<text text-anchor="middle" x="1452" y="-373" font-family="Helvetica,sans-Serif" font-size="20.00">Projection(Concat, [&#39;trip_distance&#39;, &#39;pickup_longitude&#39;, &#39;pickup_latitude&#39;, &#39;dropoff_longitude&#39;, &#39;dropoff_latitude&#39;, &#39;fare_amount&#39;])</text>
</g>
<!-- &#45;7993932846227393508&#45;&gt;&#45;6773947669108894233 -->
<g id="edge30" class="edge">
<title>&#45;7993932846227393508&#45;&gt;&#45;6773947669108894233</title>
<path fill="none" stroke="black" d="M1200.84,-180.01C1302.86,-188.39 1394.83,-200.16 1413,-216 1451.22,-249.31 1455.29,-313.08 1454.13,-349.57"/>
<polygon fill="black" stroke="black" points="1450.61,-349.8 1453.63,-359.95 1457.61,-350.13 1450.61,-349.8"/>
</g>
<!-- 3756660694961271628 -->
<g id="node11" class="node">
<title>3756660694961271628</title>
<polygon fill="none" stroke="black" points="659,-108 237,-108 237,-72 659,-72 659,-108"/>
<text text-anchor="middle" x="448" y="-85" font-family="Helvetica,sans-Serif" font-size="20.00">ArrowStringConversion(FromMapProjectable)</text>
</g>
<!-- 3756660694961271628&#45;&gt;&#45;7993932846227393508 -->
<g id="edge15" class="edge">
<title>3756660694961271628&#45;&gt;&#45;7993932846227393508</title>
<path fill="none" stroke="black" d="M555.07,-108.03C620.28,-118.41 703.65,-131.67 770.64,-142.33"/>
<polygon fill="black" stroke="black" points="770.4,-145.84 780.83,-143.95 771.5,-138.92 770.4,-145.84"/>
</g>
<!-- 8446283232819144470 -->
<g id="node12" class="node">
<title>8446283232819144470</title>
<polygon fill="none" stroke="black" points="549.5,-36 346.5,-36 346.5,0 549.5,0 549.5,-36"/>
<text text-anchor="middle" x="448" y="-13" font-family="Helvetica,sans-Serif" font-size="20.00">FromMapProjectable</text>
</g>
<!-- 8446283232819144470&#45;&gt;3756660694961271628 -->
<g id="edge17" class="edge">
<title>8446283232819144470&#45;&gt;3756660694961271628</title>
<path fill="none" stroke="black" d="M448,-36.3C448,-44.02 448,-53.29 448,-61.89"/>
<polygon fill="black" stroke="black" points="444.5,-61.9 448,-71.9 451.5,-61.9 444.5,-61.9"/>
</g>
<!-- &#45;6854831191275622415 -->
<g id="node13" class="node">
<title>&#45;6854831191275622415</title>
<polygon fill="none" stroke="black" points="1099,-108 677,-108 677,-72 1099,-72 1099,-108"/>
<text text-anchor="middle" x="888" y="-85" font-family="Helvetica,sans-Serif" font-size="20.00">ArrowStringConversion(FromMapProjectable)</text>
</g>
<!-- &#45;6854831191275622415&#45;&gt;&#45;7993932846227393508 -->
<g id="edge14" class="edge">
<title>&#45;6854831191275622415&#45;&gt;&#45;7993932846227393508</title>
<path fill="none" stroke="black" d="M888,-108.3C888,-116.02 888,-125.29 888,-133.89"/>
<polygon fill="black" stroke="black" points="884.5,-133.9 888,-143.9 891.5,-133.9 884.5,-133.9"/>
</g>
<!-- &#45;8071852971776733621 -->
<g id="node14" class="node">
<title>&#45;8071852971776733621</title>
<polygon fill="none" stroke="black" points="989.5,-36 786.5,-36 786.5,0 989.5,0 989.5,-36"/>
<text text-anchor="middle" x="888" y="-13" font-family="Helvetica,sans-Serif" font-size="20.00">FromMapProjectable</text>
</g>
<!-- &#45;8071852971776733621&#45;&gt;&#45;6854831191275622415 -->
<g id="edge18" class="edge">
<title>&#45;8071852971776733621&#45;&gt;&#45;6854831191275622415</title>
<path fill="none" stroke="black" d="M888,-36.3C888,-44.02 888,-53.29 888,-61.89"/>
<polygon fill="black" stroke="black" points="884.5,-61.9 888,-71.9 891.5,-61.9 884.5,-61.9"/>
</g>
<!-- &#45;3473190401614234899 -->
<g id="node15" class="node">
<title>&#45;3473190401614234899</title>
<polygon fill="none" stroke="black" points="1539,-108 1117,-108 1117,-72 1539,-72 1539,-108"/>
<text text-anchor="middle" x="1328" y="-85" font-family="Helvetica,sans-Serif" font-size="20.00">ArrowStringConversion(FromMapProjectable)</text>
</g>
<!-- &#45;3473190401614234899&#45;&gt;&#45;7993932846227393508 -->
<g id="edge16" class="edge">
<title>&#45;3473190401614234899&#45;&gt;&#45;7993932846227393508</title>
<path fill="none" stroke="black" d="M1220.93,-108.03C1155.72,-118.41 1072.35,-131.67 1005.36,-142.33"/>
<polygon fill="black" stroke="black" points="1004.5,-138.92 995.17,-143.95 1005.6,-145.84 1004.5,-138.92"/>
</g>
<!-- &#45;8176220381825059277 -->
<g id="node16" class="node">
<title>&#45;8176220381825059277</title>
<polygon fill="none" stroke="black" points="1429.5,-36 1226.5,-36 1226.5,0 1429.5,0 1429.5,-36"/>
<text text-anchor="middle" x="1328" y="-13" font-family="Helvetica,sans-Serif" font-size="20.00">FromMapProjectable</text>
</g>
<!-- &#45;8176220381825059277&#45;&gt;&#45;3473190401614234899 -->
<g id="edge19" class="edge">
<title>&#45;8176220381825059277&#45;&gt;&#45;3473190401614234899</title>
<path fill="none" stroke="black" d="M1328,-36.3C1328,-44.02 1328,-53.29 1328,-61.89"/>
<polygon fill="black" stroke="black" points="1324.5,-61.9 1328,-71.9 1331.5,-61.9 1324.5,-61.9"/>
</g>
<!-- &#45;3302576079082431341 -->
<g id="node17" class="node">
<title>&#45;3302576079082431341</title>
<polygon fill="none" stroke="black" points="725.5,-468 534.5,-468 534.5,-432 725.5,-432 725.5,-468"/>
<text text-anchor="middle" x="630" y="-445" font-family="Helvetica,sans-Serif" font-size="20.00">And(And, Between)</text>
</g>
<!-- &#45;3302576079082431341&#45;&gt;3132304843633407006 -->
<g id="edge11" class="edge">
<title>&#45;3302576079082431341&#45;&gt;3132304843633407006</title>
<path fill="none" stroke="black" d="M630,-468.3C630,-476.02 630,-485.29 630,-493.89"/>
<polygon fill="black" stroke="black" points="626.5,-493.9 630,-503.9 633.5,-493.9 626.5,-493.9"/>
</g>
<!-- &#45;6484332753491845169 -->
<g id="node18" class="node">
<title>&#45;6484332753491845169</title>
<polygon fill="none" stroke="black" points="630.5,-396 433.5,-396 433.5,-360 630.5,-360 630.5,-396"/>
<text text-anchor="middle" x="532" y="-373" font-family="Helvetica,sans-Serif" font-size="20.00">Between(Projection)</text>
</g>
<!-- &#45;6484332753491845169&#45;&gt;&#45;3302576079082431341 -->
<g id="edge21" class="edge">
<title>&#45;6484332753491845169&#45;&gt;&#45;3302576079082431341</title>
<path fill="none" stroke="black" d="M555.97,-396.12C568.55,-405.11 584.13,-416.24 597.75,-425.97"/>
<polygon fill="black" stroke="black" points="595.76,-428.85 605.93,-431.81 599.83,-423.15 595.76,-428.85"/>
</g>
<!-- &#45;1001399952797934048&#45;&gt;&#45;6484332753491845169 -->
<g id="edge22" class="edge">
<title>&#45;1001399952797934048&#45;&gt;&#45;6484332753491845169</title>
<path fill="none" stroke="black" d="M532,-252.13C532,-276.33 532,-320.79 532,-349.61"/>
<polygon fill="black" stroke="black" points="528.5,-349.81 532,-359.81 535.5,-349.81 528.5,-349.81"/>
</g>
<!-- &#45;2501700728046228090 -->
<g id="node20" class="node">
<title>&#45;2501700728046228090</title>
<polygon fill="none" stroke="black" points="881.5,-396 648.5,-396 648.5,-360 881.5,-360 881.5,-396"/>
<text text-anchor="middle" x="765" y="-373" font-family="Helvetica,sans-Serif" font-size="20.00">And(Between, Between)</text>
</g>
<!-- &#45;2501700728046228090&#45;&gt;&#45;3302576079082431341 -->
<g id="edge20" class="edge">
<title>&#45;2501700728046228090&#45;&gt;&#45;3302576079082431341</title>
<path fill="none" stroke="black" d="M731.98,-396.12C713.92,-405.49 691.35,-417.19 672.05,-427.2"/>
<polygon fill="black" stroke="black" points="670.42,-424.1 663.15,-431.81 673.64,-430.31 670.42,-424.1"/>
</g>
<!-- &#45;3891747291772454089 -->
<g id="node21" class="node">
<title>&#45;3891747291772454089</title>
<polygon fill="none" stroke="black" points="924.5,-324 727.5,-324 727.5,-288 924.5,-288 924.5,-324"/>
<text text-anchor="middle" x="826" y="-301" font-family="Helvetica,sans-Serif" font-size="20.00">Between(Projection)</text>
</g>
<!-- &#45;3891747291772454089&#45;&gt;&#45;2501700728046228090 -->
<g id="edge25" class="edge">
<title>&#45;3891747291772454089&#45;&gt;&#45;2501700728046228090</title>
<path fill="none" stroke="black" d="M810.92,-324.3C803.61,-332.7 794.69,-342.93 786.66,-352.14"/>
<polygon fill="black" stroke="black" points="783.84,-350.06 779.91,-359.9 789.11,-354.66 783.84,-350.06"/>
</g>
<!-- 4822450927703894321&#45;&gt;&#45;3891747291772454089 -->
<g id="edge26" class="edge">
<title>4822450927703894321&#45;&gt;&#45;3891747291772454089</title>
<path fill="none" stroke="black" d="M872.67,-252.3C865.24,-260.7 856.18,-270.93 848.02,-280.14"/>
<polygon fill="black" stroke="black" points="845.16,-278.09 841.15,-287.9 850.4,-282.73 845.16,-278.09"/>
</g>
<!-- 839542396802950812 -->
<g id="node23" class="node">
<title>839542396802950812</title>
<polygon fill="none" stroke="black" points="1209.5,-324 1012.5,-324 1012.5,-288 1209.5,-288 1209.5,-324"/>
<text text-anchor="middle" x="1111" y="-301" font-family="Helvetica,sans-Serif" font-size="20.00">Between(Projection)</text>
</g>
<!-- 839542396802950812&#45;&gt;&#45;2501700728046228090 -->
<g id="edge24" class="edge">
<title>839542396802950812&#45;&gt;&#45;2501700728046228090</title>
<path fill="none" stroke="black" d="M1026.8,-324.03C976.16,-334.28 911.58,-347.34 859.24,-357.93"/>
<polygon fill="black" stroke="black" points="858.38,-354.54 849.28,-359.95 859.77,-361.4 858.38,-354.54"/>
</g>
<!-- &#45;3181597850050546762&#45;&gt;839542396802950812 -->
<g id="edge28" class="edge">
<title>&#45;3181597850050546762&#45;&gt;839542396802950812</title>
<path fill="none" stroke="black" d="M1209.2,-252.12C1191.89,-261.45 1170.28,-273.08 1151.74,-283.06"/>
<polygon fill="black" stroke="black" points="1150.07,-279.99 1142.92,-287.81 1153.39,-286.15 1150.07,-279.99"/>
</g>
<!-- &#45;6773947669108894233&#45;&gt;&#45;7453283040889391356 -->
<g id="edge9" class="edge">
<title>&#45;6773947669108894233&#45;&gt;&#45;7453283040889391356</title>
<path fill="none" stroke="black" d="M1391.41,-396.06C1252.27,-435.24 910.51,-531.47 762.37,-573.18"/>
<polygon fill="black" stroke="black" points="761.15,-569.89 752.47,-575.97 763.05,-576.63 761.15,-569.89"/>
</g>
<!-- 3946276225119768237 -->
<g id="node26" class="node">
<title>3946276225119768237</title>
<polygon fill="none" stroke="black" points="1044.5,-756 847.5,-756 847.5,-720 1044.5,-720 1044.5,-756"/>
<text text-anchor="middle" x="946" y="-733" font-family="Helvetica,sans-Serif" font-size="20.00">Between(Projection)</text>
</g>
<!-- 3946276225119768237&#45;&gt;3687746503436436684 -->
<g id="edge5" class="edge">
<title>3946276225119768237&#45;&gt;3687746503436436684</title>
<path fill="none" stroke="black" d="M884.19,-756.03C847.93,-766.03 801.94,-778.7 764.04,-789.15"/>
<polygon fill="black" stroke="black" points="762.8,-785.86 754.09,-791.89 764.66,-792.61 762.8,-785.86"/>
</g>
<!-- &#45;3678778323545888236&#45;&gt;3946276225119768237 -->
<g id="edge31" class="edge">
<title>&#45;3678778323545888236&#45;&gt;3946276225119768237</title>
<path fill="none" stroke="black" d="M975.36,-684.3C970.87,-692.36 965.44,-702.11 960.48,-711.02"/>
<polygon fill="black" stroke="black" points="957.34,-709.46 955.53,-719.9 963.45,-712.86 957.34,-709.46"/>
</g>
</g>
</svg>
